PathFileType	4	(X/Y/Z)	Run_500 01
DataRate	CameraRate	NumFrames	NumMarkers	Units	OrigDataRate	OrigDataStartFrame	OrigNumFrames
120	120	4	42	mm	120	32	128
Frame#	Time	LASI			RASI			LPSI			RPSI			RTH1			RTH2			RTH3			LTH1			LTH2			LTH3			RTB1			RTB2			LTB1			LTB2			LTB3			RCAL			RTOE			RMT5			LCAL			LTOE			LMT5			LACR			RACR			CLAV			C7			RUA1			RUA2			RUA3			RLEL			LUA1			LUA2			LUA3			LLEL			LMEL			RFAsuperior			RFAradius			RFAulna			LFAsuperior			LFAradius			LFAulna			RMEL			RTB3			
		X1	Y1	Z1	X2	Y2	Z2	X3	Y3	Z3	X4	Y4	Z4	X5	Y5	Z5	X6	Y6	Z6	X7	Y7	Z7	X8	Y8	Z8	X9	Y9	Z9	X10	Y10	Z10	X11	Y11	Z11	X12	Y12	Z12	X13	Y13	Z13	X14	Y14	Z14	X15	Y15	Z15	X16	Y16	Z16	X17	Y17	Z17	X18	Y18	Z18	X19	Y19	Z19	X20	Y20	Z20	X21	Y21	Z21	X22	Y22	Z22	X23	Y23	Z23	X24	Y24	Z24	X25	Y25	Z25	X26	Y26	Z26	X27	Y27	Z27	X28	Y28	Z28	X29	Y29	Z29	X30	Y30	Z30	X31	Y31	Z31	X32	Y32	Z32	X33	Y33	Z33	X34	Y34	Z34	X35	Y35	Z35	X36	Y36	Z36	X37	Y37	Z37	X38	Y38	Z38	X39	Y39	Z39	X40	Y40	Z40	X41	Y41	Z41	X42	Y42	Z42	

30	0.433333	1171.417956	1035.712713	-419.094657	1163.268979	1009.568315	-190.691495	1012.471355	1089.322062	-361.760944	1011.653146	1084.307659	-262.09234	1035.537062	883.667389	-137.983732	1025.979188	722.2998720000001	-171.687687	925.214713	674.10241	-187.325929	1176.533558	908.989613	-489.168592	1296.377443	892.721577	-474.323729	1328.820936	755.272909	-454.52082	810.710375	460.879464	-249.935806	740.110899	462.587349	-182.4006	1456.996962	570.840541	-405.215449	1395.152004	477.790153	-449.824478	1399.737804	376.56941	-385.670151	494.988786	401.231631	-244.074548	531.231409	200.361475	-297.948295	497.652463	188.354969	-196.353714	1260.441129	275.860945	-365.116999	1455.826725	212.666258	-329.0962	1438.318116	168.694924	-425.71419	1105.963203	1521.928341	-478.900273	1189.25681	1509.205699	-136.658827	1220.35142	1461.543926	-306.943475	1104.777426	1541.430604	-305.905008	1175.876688	1432.079664	-83.35465000000001	1180.762298	1343.370846	-89.747794	1094.671774	1347.969041	-57.104099	1079.191623	1233.214691	-22.003032	1039.185374	1507.311729	-509.881519	981.345742	1482.341744	-456.474661	962.245453	1437.980329	-529.1567209999999	836.6740150000001	1409.258933	-521.292182	841.901746	1402.498562	-450.79749	1173.217493	1240.720438	-54.919818	1312.776278	1229.164787	-160.96461	1311.400285	1161.877815	-151.749838	880.90062	1349.158386	-554.643179	1002.134172	1187.08899	-546.883799	941.546572	1160.910757	-557.818041	1036.120251	1226.504803	-85.18270699999999	656.318674	365.844098	-242.250846	
31	0.441667	1169.308397	1037.551322	-417.518854	1162.259583	1014.097649	-188.669646	1010.231358	1091.639005	-361.492771	1010.293298	1087.749963	-261.373692	1035.34065	888.031522	-138.73294	1030.387665	723.220855	-174.084387	930.794231	673.079377	-187.784924	1171.743718	903.83066	-487.790762	1291.535889	886.698788	-477.899172	1322.004576	749.988385	-454.021817	806.485407	466.765727	-251.292076	736.92111	473.942677	-183.617684	1459.3371	566.247532	-403.9305	1409.298243	467.005058	-449.387142	1422.395447	367.236049	-384.554658	484.530305	432.465497	-241.730218	510.243579	230.813244	-297.47732	476.771184	219.544191	-195.451455	1293.5756	255.211913	-364.187448	1493.179794	207.514273	-328.817252	1478.982101	162.701006	-423.31604	1106.649816	1523.495916	-481.111593	1190.276309	1512.14433	-138.320182	1221.01007	1464.014347	-308.695104	1105.70217	1544.285868	-308.052581	1175.860927	1435.470895	-84.52287	1180.778172	1347.384201	-89.902766	1094.534386	1351.919684	-58.010791	1078.462462	1238.038519	-22.110387	1039.45428	1508.305248	-512.3643499999999	982.0611270000001	1483.969402	-457.483264	962.206584	1439.93425	-529.4504460000001	836.6170090000001	1412.646296	-519.997381	842.627433	1404.697094	-450.146439	1172.813596	1242.339264	-54.93593	1311.39346	1226.387415	-161.877277	1309.23322	1159.401585	-149.323196	880.977839	1353.25788	-554.201877	1003.456978	1191.614599	-547.924171	943.284298	1164.414405	-558.406305	1035.762816	1230.337179	-86.479118	644.754514	385.231869	-242.226945	
32	0.45	1167.318152	1039.074181	-416.176379	1161.195984	1018.091246	-186.496198	1007.653843	1092.186624	-360.695538	1008.382072	1089.933074	-260.619309	1037.116765	889.5692770000001	-139.188719	1036.198133	722.811412	-177.690923	937.873256	671.102851	-188.754379	1166.502056	898.5017769999999	-486.195107	1287.536868	880.081258	-480.180404	1315.267108	744.1684299999999	-455.237244	804.458293	472.563052	-251.500799	735.008556	486.570434	-184.648039	1459.255907	559.4387829999999	-402.825897	1420.966395	455.669243	-448.214035	1442.079697	358.002102	-383.07872	479.071301	464.730997	-240.792287	492.87279	261.837903	-296.022776	457.870982	252.831348	-194.171108	1323.860362	237.80425	-364.093944	1525.36734	204.060428	-327.529156	1514.969976	158.740709	-420.779258	1107.570351	1524.593767	-483.331697	1191.659033	1514.250029	-140.090707	1221.611415	1466.061785	-310.381429	1106.909444	1546.697455	-310.155364	1175.661159	1438.041348	-85.75460099999999	1180.18025	1350.332269	-90.314635	1093.896327	1355.137239	-59.140481	1076.935655	1242.330641	-22.541768	1039.680027	1508.474463	-515.3462489999999	982.588694	1484.56978	-459.093077	962.715877	1440.144168	-530.528357	837.38778	1413.864776	-520.208246	843.634619	1404.971207	-450.684206	1171.832693	1242.541538	-54.885317	1309.647083	1220.641598	-161.86377	1305.743445	1154.166315	-145.285571	882.33122	1355.126591	-554.731992	1005.876695	1194.077563	-549.0026319999999	946.172997	1165.914322	-559.2574540000001	1034.964581	1234.502886	-87.288721	636.176637	405.065714	-241.65076	
33	0.458333	1165.626143	1040.515721	-415.168189	1160.235104	1021.269638	-184.360513	1005.207173	1090.995544	-359.220975	1006.182637	1090.730035	-259.804203	1041.017663	887.918667	-139.145297	1042.825849	721.592428	-181.518934	945.797714	668.5967429999999	-190.12189	1160.97666	893.885261	-484.921383	1284.624046	873.128915	-480.772184	1308.1872	736.958556	-457.42998	804.793606	477.948323	-251.056857	735.203359	499.908401	-185.780794	1456.830204	550.672016	-401.477694	1429.408049	444.476579	-446.587192	1458.057794	349.328193	-381.333357	479.052214	497.237111	-241.388092	478.960654	292.975628	-293.501926	441.794423	288.027886	-192.231906	1349.949003	223.377136	-364.783512	1551.864697	201.980212	-324.767459	1546.077425	155.181406	-417.483512	1108.859806	1525.072815	-485.517117	1193.426803	1515.507906	-141.977374	1222.114437	1467.399991	-311.954143	1108.420478	1548.687834	-312.199466	1175.707818	1439.88508	-87.19497200000001	1179.199775	1352.239462	-91.070195	1092.925849	1357.923868	-60.587233	1074.661764	1246.141255	-23.147681	1040.168984	1507.956098	-518.416433	983.130552	1484.088191	-461.163379	963.80664	1438.931295	-532.31287	838.928045	1412.910208	-521.936238	844.960492	1403.461929	-452.380333	1170.137548	1241.657079	-54.624176	1307.397899	1212.35107	-160.801409	1300.639156	1146.68601	-140.432418	884.827871	1354.704513	-556.235157	1009.358781	1194.589996	-550.216083	950.1815769999999	1165.518963	-560.512387	1033.397539	1239.081798	-87.38261300000001	631.040126	424.879552	-240.817221	
